<svg width="112" height="32" viewBox="0 0 112 32" fill="none" xmlns="http://www.w3.org/2000/svg">
<g clip-path="url(#clip0_495_67)">
<path fill-rule="evenodd" clip-rule="evenodd" d="M44.241 24.271C46.3681 24.4234 48.8467 22.7709 49.7198 21.8275C52.7552 18.5431 52.8284 13.7938 49.7726 10.3542C48.6358 9.07382 45.9637 7.65869 44.2732 7.85792H38.1527V24.2505L44.2556 24.271H44.241ZM41.6041 20.72V11.3884C42.5621 11.3256 43.5232 11.3256 44.4812 11.3884C45.235 11.4758 45.954 11.7542 46.5702 12.1971C50.0861 14.5995 48.6211 20.3274 44.4226 20.7112C43.4844 20.7772 42.5427 20.7801 41.6041 20.72Z" fill="#008CEB"/>
<path fill-rule="evenodd" clip-rule="evenodd" d="M97.9717 24.3003H101.461V20.7669H108.384L108.405 24.2828H111.894V18.4582C111.894 16.7003 112.041 14.5087 111.601 12.9178C111.202 11.4614 110.338 10.1755 109.14 9.25625C107.941 8.33705 106.475 7.835 104.965 7.8267C103.455 7.8184 101.984 8.3043 100.776 9.21028C99.5673 10.1163 98.6887 11.3926 98.2735 12.8446C97.8047 14.415 97.9629 16.668 97.9629 18.4113C97.9629 20.3802 97.9424 22.3608 97.9629 24.3296L97.9717 24.3003ZM101.464 17.213C101.444 15.7481 101.288 14.1806 101.977 13.0526C102.279 12.5333 102.713 12.1032 103.236 11.8063C103.758 11.5094 104.35 11.3561 104.951 11.362C105.548 11.3665 106.135 11.5259 106.652 11.8248C107.17 12.1237 107.601 12.5518 107.904 13.0672C108.584 14.2392 108.423 15.7041 108.405 17.2159L101.464 17.213Z" fill="#008CEB"/>
<path fill-rule="evenodd" clip-rule="evenodd" d="M58.067 24.2974H61.5448C61.5448 23.559 61.451 21.3001 61.577 20.764H68.4739L68.4973 24.2944H71.981C71.9634 22.3373 71.981 20.3831 71.981 18.4347C71.981 16.7647 72.1362 14.3739 71.688 12.8914C71.2863 11.4369 70.4204 10.1534 69.222 9.23631C68.0236 8.31924 66.5585 7.81881 65.0495 7.81118C63.5405 7.80356 62.0704 8.28914 60.8628 9.19405C59.6552 10.0989 58.7764 11.3736 58.36 12.824C57.8942 14.3475 58.0524 16.6768 58.0524 18.3732C58.0524 20.3303 58.0084 22.3373 58.0524 24.2886L58.067 24.2974ZM61.5477 17.213C61.5243 15.748 61.3748 14.16 62.0634 13.0555C62.3655 12.5375 62.7981 12.1078 63.3181 11.8091C63.8381 11.5104 64.4273 11.3532 65.0269 11.3532C65.6266 11.3532 66.2158 11.5104 66.7357 11.8091C67.2557 12.1078 67.6883 12.5375 67.9905 13.0555C68.6731 14.2274 68.5091 15.7158 68.4973 17.2071L61.5477 17.213Z" fill="#008CEB"/>
<path fill-rule="evenodd" clip-rule="evenodd" d="M78.1014 14.2597L78.0516 16.7003C78.0516 18.7512 77.952 22.5805 78.0516 24.2476H81.462C81.5411 23.0757 81.3389 14.7519 81.5528 14.4853C81.5528 12.868 83.2433 11.3621 84.9485 11.3562C85.8349 11.3509 86.6883 11.6914 87.3276 12.3055C87.7612 12.701 88.4263 13.6034 88.4145 14.5146C88.5727 14.6054 88.4468 23.3042 88.4966 24.2681H91.9099L91.8835 14.3212C91.9685 13.5419 91.4997 12.3377 91.1979 11.7283C90.6383 10.5671 89.7647 9.58585 88.6761 8.89559C87.5875 8.20534 86.3274 7.83368 85.0385 7.8227C83.7495 7.81172 82.4832 8.16187 81.3831 8.83348C80.2829 9.50509 79.3927 10.4713 78.8134 11.6228C78.5204 12.2234 78.0282 13.4598 78.1014 14.2597Z" fill="#008CEB"/>
<path d="M16 32C24.8366 32 32 24.8366 32 16C32 7.16344 24.8366 0 16 0C7.16344 0 0 7.16344 0 16C0 24.8366 7.16344 32 16 32Z" fill="#008CEB"/>
<path d="M25.3228 16.0674V20.5706C25.3228 20.8636 25.1968 20.9251 24.9507 20.7815C24.6215 20.584 24.2789 20.4097 23.9253 20.26C22.8575 19.8346 21.7008 19.6806 20.5589 19.8118C19.3125 19.9734 18.0893 20.2802 16.9141 20.7259C15.7422 21.1214 14.5937 21.5492 13.3983 21.8802C12.4082 22.1743 11.3778 22.3097 10.3454 22.2816C9.20115 22.2373 8.08914 21.8905 7.1225 21.2767C7.00104 21.2035 6.90139 21.0992 6.8339 20.9745C6.76641 20.8498 6.73353 20.7094 6.73868 20.5677C6.73868 17.6183 6.73868 14.6689 6.73868 11.7195C6.73868 11.5759 6.73868 11.406 6.8676 11.3327C6.99651 11.2595 7.12836 11.3796 7.23969 11.4529C8.28937 12.1626 9.53258 12.531 10.7995 12.5076C11.7053 12.4704 12.6012 12.3037 13.4598 12.0125C14.6786 11.6345 15.8564 11.1335 17.0547 10.7087C17.9876 10.3502 18.944 10.0565 19.9172 9.82971C20.7525 9.6341 21.6192 9.61356 22.4628 9.76937C23.3064 9.92518 24.1086 10.254 24.8189 10.735C24.9817 10.8348 25.1151 10.9762 25.2052 11.1445C25.2953 11.3129 25.3389 11.5023 25.3316 11.6931C25.3316 13.158 25.3316 14.623 25.3316 16.0879L25.3228 16.0674Z" fill="#FEFEFE"/>
</g>
<defs>
<clipPath id="clip0_495_67">
<rect width="111.921" height="32" fill="white"/>
</clipPath>
</defs>
</svg>
