<svg width="140" height="40" viewBox="0 0 140 40" fill="none" xmlns="http://www.w3.org/2000/svg">
<g clip-path="url(#clip0_493_58)">
<path d="M4.08801 7.77802C4.08801 6.19602 5.36201 4.90802 6.95801 4.90802H32.718C34.3 4.90802 35.588 6.19602 35.588 7.77802V33.538C35.588 35.12 34.3 36.408 32.718 36.408H6.95801C5.36201 36.408 4.08801 35.12 4.08801 33.538V7.77802Z" fill="#ED1D24"/>
<path d="M28.98 20.952C28.812 26.972 23.87 31.802 17.808 31.802C11.746 31.802 6.81804 26.972 6.63604 20.952H7.19604C7.23804 25.67 11.074 29.478 15.806 29.478C20.538 29.478 24.374 25.67 24.416 20.952H28.98ZM34.174 20.952C34.02 28.736 27.664 35.008 19.838 35.008C12.012 35.008 5.64204 28.736 5.48804 20.952H6.07604C6.25804 27.28 11.452 32.348 17.822 32.348C24.206 32.348 29.386 27.28 29.582 20.952H34.174ZM23.842 20.952C23.8 25.362 20.216 28.932 15.792 28.932C11.382 28.932 7.79804 25.362 7.75604 20.952H8.35804C8.34404 21.022 8.34404 21.078 8.34404 21.148C8.34404 24.326 10.92 26.902 14.098 26.902C17.262 26.902 19.838 24.326 19.838 21.148C19.838 21.078 19.838 21.022 19.838 20.952H23.842ZM15.834 20.378C15.862 15.954 19.446 12.398 23.87 12.398C28.294 12.398 31.878 15.954 31.906 20.378H31.318C31.318 20.308 31.318 20.238 31.318 20.168C31.318 17.004 28.742 14.428 25.578 14.428C22.4 14.428 19.824 17.004 19.824 20.168C19.824 20.238 19.824 20.308 19.824 20.378H15.834ZM5.48804 20.378C5.64204 12.58 12.012 6.32202 19.838 6.32202C27.664 6.32202 34.02 12.58 34.174 20.378H33.586C33.404 14.036 28.21 8.96802 21.84 8.96802C15.47 8.96802 10.276 14.036 10.094 20.378H5.48804ZM10.682 20.378C10.85 14.344 15.792 9.52802 21.854 9.52802C27.916 9.52802 32.858 14.344 33.026 20.378H32.48C32.424 15.66 28.588 11.838 23.856 11.838C19.138 11.838 15.288 15.66 15.246 20.378H10.682Z" fill="white"/>
<path d="M41.972 10.312C41.972 10.956 42.07 11.432 42.28 11.754C42.574 12.188 42.966 12.412 43.442 12.412C43.806 12.412 44.128 12.258 44.38 11.95C44.646 11.628 44.786 11.138 44.786 10.466C44.786 9.73802 44.646 9.22002 44.38 8.91202C44.128 8.59002 43.792 8.43602 43.372 8.43602C42.98 8.43602 42.644 8.59002 42.378 8.89802C42.112 9.20602 41.972 9.66802 41.972 10.312ZM48.496 9.22002L46.97 8.94002C47.138 8.33802 47.432 7.89002 47.852 7.59602C48.272 7.30202 48.888 7.16202 49.714 7.16202C50.47 7.16202 51.016 7.24602 51.394 7.42802C51.758 7.59602 52.01 7.82002 52.164 8.10002C52.304 8.36602 52.388 8.85602 52.388 9.58402L52.374 11.516C52.374 12.076 52.388 12.482 52.444 12.748C52.5 13 52.598 13.28 52.752 13.588H51.086C51.044 13.476 50.988 13.308 50.932 13.084C50.904 12.986 50.876 12.93 50.876 12.902C50.582 13.168 50.274 13.378 49.952 13.518C49.63 13.658 49.28 13.728 48.902 13.728C48.258 13.728 47.74 13.546 47.362 13.196C46.984 12.846 46.802 12.398 46.802 11.866C46.802 11.516 46.886 11.194 47.054 10.914C47.222 10.634 47.46 10.424 47.768 10.284C48.076 10.13 48.524 10.004 49.112 9.89202C49.896 9.75202 50.442 9.61202 50.736 9.48602V9.31802C50.736 8.99602 50.652 8.77202 50.498 8.63202C50.344 8.50602 50.036 8.43602 49.602 8.43602C49.294 8.43602 49.07 8.49202 48.902 8.60402C48.734 8.71602 48.594 8.92602 48.496 9.22002ZM50.736 10.564C50.526 10.634 50.19 10.718 49.714 10.816C49.252 10.914 48.944 11.012 48.804 11.11C48.58 11.264 48.468 11.46 48.468 11.698C48.468 11.922 48.566 12.132 48.734 12.3C48.916 12.468 49.14 12.552 49.406 12.552C49.714 12.552 49.994 12.454 50.274 12.258C50.47 12.104 50.61 11.922 50.666 11.712C50.722 11.572 50.736 11.292 50.736 10.9V10.564ZM59.206 13.588H57.526V10.382C57.526 9.69602 57.484 9.26202 57.414 9.06602C57.344 8.85602 57.218 8.70202 57.064 8.59002C56.896 8.49202 56.714 8.43602 56.476 8.43602C56.196 8.43602 55.93 8.50602 55.706 8.67402C55.468 8.82802 55.314 9.03802 55.216 9.29002C55.132 9.55602 55.09 10.032 55.09 10.732V13.588H53.424V7.30202H54.978V8.22602C55.524 7.51202 56.224 7.16202 57.064 7.16202C57.442 7.16202 57.778 7.23202 58.086 7.35802C58.394 7.48402 58.618 7.65202 58.772 7.86202C58.94 8.07202 59.038 8.29602 59.108 8.56202C59.164 8.82802 59.192 9.19202 59.206 9.68202V13.588ZM60.228 13.588V4.90802H61.908V9.51402L63.868 7.30202H65.94L63.77 9.59802L66.094 13.588H64.288L62.692 10.76L61.908 11.572V13.588H60.228ZM40.306 13.588V4.90802H41.986V8.03002C42.504 7.45602 43.12 7.16202 43.82 7.16202C44.59 7.16202 45.234 7.44202 45.738 7.98802C46.242 8.54802 46.494 9.34602 46.494 10.382C46.494 11.446 46.242 12.272 45.724 12.86C45.206 13.434 44.59 13.728 43.848 13.728C43.484 13.728 43.134 13.63 42.77 13.462C42.42 13.28 42.126 13.014 41.86 12.664V13.588H40.306Z" fill="#414042"/>
<path d="M124.194 29.674L127.526 29.17C127.666 29.814 127.96 30.304 128.394 30.654C128.828 30.976 129.43 31.144 130.214 31.144C131.068 31.144 131.712 30.99 132.146 30.668C132.44 30.444 132.58 30.15 132.58 29.786C132.58 29.534 132.51 29.324 132.342 29.156C132.188 29.002 131.81 28.862 131.236 28.722C128.562 28.134 126.854 27.588 126.14 27.098C125.146 26.426 124.656 25.488 124.656 24.284C124.656 23.192 125.09 22.282 125.944 21.54C126.798 20.798 128.128 20.42 129.934 20.42C131.656 20.42 132.93 20.7 133.77 21.26C134.596 21.82 135.17 22.646 135.492 23.752L132.356 24.326C132.23 23.836 131.964 23.458 131.586 23.206C131.222 22.94 130.69 22.814 129.99 22.814C129.122 22.814 128.492 22.94 128.114 23.178C127.862 23.36 127.736 23.584 127.736 23.85C127.736 24.088 127.848 24.284 128.072 24.452C128.366 24.676 129.402 24.984 131.166 25.39C132.944 25.796 134.176 26.286 134.876 26.86C135.576 27.462 135.912 28.274 135.912 29.338C135.912 30.486 135.436 31.48 134.47 32.306C133.518 33.132 132.09 33.538 130.214 33.538C128.506 33.538 127.148 33.202 126.14 32.502C125.146 31.816 124.502 30.864 124.194 29.674ZM120.036 27.238C119.616 27.378 118.944 27.546 118.02 27.742C117.096 27.938 116.494 28.134 116.214 28.316C115.78 28.624 115.556 29.016 115.556 29.492C115.556 29.954 115.738 30.36 116.074 30.696C116.424 31.032 116.872 31.2 117.404 31.2C118.006 31.2 118.58 31.004 119.112 30.612C119.518 30.318 119.784 29.94 119.91 29.52C119.994 29.226 120.036 28.694 120.036 27.896V27.238ZM115.598 24.536L112.588 23.99C112.924 22.786 113.498 21.89 114.338 21.302C115.164 20.714 116.382 20.42 118.02 20.42C119.504 20.42 120.596 20.602 121.324 20.952C122.052 21.302 122.556 21.75 122.85 22.296C123.144 22.828 123.298 23.822 123.298 25.264L123.27 29.142C123.27 30.234 123.312 31.046 123.424 31.578C123.522 32.096 123.732 32.656 124.026 33.258H120.736C120.652 33.034 120.54 32.712 120.414 32.278C120.358 32.082 120.33 31.956 120.302 31.886C119.728 32.446 119.126 32.852 118.482 33.132C117.838 33.398 117.138 33.538 116.41 33.538C115.122 33.538 114.1 33.188 113.358 32.488C112.616 31.788 112.238 30.906 112.238 29.828C112.238 29.128 112.406 28.498 112.742 27.938C113.092 27.378 113.554 26.958 114.17 26.664C114.786 26.37 115.668 26.104 116.816 25.88C118.37 25.6 119.434 25.32 120.036 25.068V24.746C120.036 24.102 119.882 23.654 119.56 23.374C119.252 23.108 118.65 22.968 117.782 22.968C117.194 22.968 116.732 23.08 116.396 23.318C116.074 23.556 115.794 23.962 115.598 24.536ZM92.554 20.714H95.62V22.422C96.712 21.092 98.014 20.42 99.526 20.42C100.338 20.42 101.038 20.588 101.626 20.924C102.214 21.26 102.704 21.75 103.082 22.422C103.628 21.75 104.216 21.26 104.86 20.924C105.504 20.588 106.176 20.42 106.904 20.42C107.828 20.42 108.612 20.616 109.242 20.994C109.886 21.358 110.362 21.918 110.67 22.632C110.908 23.178 111.02 24.032 111.02 25.236V33.258H107.702V26.09C107.702 24.844 107.576 24.032 107.352 23.682C107.044 23.206 106.568 22.968 105.938 22.968C105.476 22.968 105.028 23.108 104.622 23.388C104.216 23.682 103.922 24.088 103.74 24.648C103.558 25.194 103.46 26.048 103.46 27.238V33.258H100.142V26.384C100.142 25.166 100.086 24.368 99.974 24.018C99.848 23.668 99.666 23.402 99.414 23.234C99.162 23.052 98.84 22.968 98.406 22.968C97.902 22.968 97.44 23.108 97.02 23.374C96.614 23.654 96.32 24.06 96.138 24.578C95.97 25.096 95.872 25.95 95.872 27.168V33.258H92.554V20.714ZM87.416 33.258H84.098V20.714H87.178V22.492C87.71 21.652 88.172 21.092 88.592 20.826C89.026 20.56 89.502 20.42 90.034 20.42C90.79 20.42 91.518 20.63 92.218 21.05L91.196 23.948C90.636 23.584 90.118 23.402 89.642 23.402C89.166 23.402 88.774 23.528 88.452 23.794C88.13 24.046 87.878 24.508 87.682 25.18C87.5 25.852 87.416 27.252 87.416 29.38V33.258ZM79.268 27.238C78.848 27.378 78.176 27.546 77.252 27.742C76.328 27.938 75.726 28.134 75.446 28.316C75.012 28.624 74.802 29.016 74.802 29.492C74.802 29.954 74.97 30.36 75.32 30.696C75.656 31.032 76.104 31.2 76.636 31.2C77.238 31.2 77.812 31.004 78.358 30.612C78.75 30.318 79.016 29.94 79.142 29.52C79.226 29.226 79.268 28.694 79.268 27.896V27.238ZM74.83 24.536L71.82 23.99C72.156 22.786 72.744 21.89 73.57 21.302C74.396 20.714 75.628 20.42 77.252 20.42C78.736 20.42 79.842 20.602 80.556 20.952C81.284 21.302 81.802 21.75 82.082 22.296C82.39 22.828 82.53 23.822 82.53 25.264L82.502 29.142C82.502 30.234 82.558 31.046 82.656 31.578C82.768 32.096 82.964 32.656 83.258 33.258H79.968C79.884 33.034 79.772 32.712 79.646 32.278C79.59 32.082 79.562 31.956 79.534 31.886C78.974 32.446 78.358 32.852 77.714 33.132C77.07 33.398 76.384 33.538 75.642 33.538C74.354 33.538 73.332 33.188 72.59 32.488C71.848 31.788 71.47 30.906 71.47 29.828C71.47 29.128 71.638 28.498 71.988 27.938C72.324 27.378 72.8 26.958 73.402 26.664C74.018 26.37 74.9 26.104 76.048 25.88C77.602 25.6 78.68 25.32 79.268 25.068V24.746C79.268 24.102 79.114 23.654 78.806 23.374C78.484 23.108 77.896 22.968 77.014 22.968C76.426 22.968 75.964 23.08 75.628 23.318C75.306 23.556 75.04 23.962 74.83 24.536ZM70.196 33.258H66.878V26.86C66.878 25.502 66.808 24.62 66.654 24.228C66.514 23.836 66.29 23.514 65.968 23.304C65.646 23.08 65.268 22.968 64.82 22.968C64.246 22.968 63.728 23.122 63.266 23.444C62.818 23.752 62.496 24.172 62.328 24.69C62.16 25.208 62.076 26.174 62.076 27.574V33.258H58.758V20.714H61.838V22.548C62.93 21.134 64.316 20.42 65.968 20.42C66.71 20.42 67.382 20.56 67.984 20.826C68.586 21.092 69.048 21.428 69.356 21.834C69.664 22.24 69.888 22.702 70 23.234C70.126 23.752 70.196 24.494 70.196 25.46V33.258ZM53.27 20.714H56.588V33.258H53.27V20.714ZM53.27 15.94H56.588V19.006H53.27V15.94ZM39.844 29.674L43.176 29.17C43.316 29.814 43.61 30.304 44.044 30.654C44.478 30.976 45.08 31.144 45.864 31.144C46.718 31.144 47.362 30.99 47.796 30.668C48.09 30.444 48.23 30.15 48.23 29.786C48.23 29.534 48.16 29.324 47.992 29.156C47.838 29.002 47.46 28.862 46.886 28.722C44.212 28.134 42.518 27.588 41.79 27.098C40.796 26.426 40.306 25.488 40.306 24.284C40.306 23.192 40.74 22.282 41.594 21.54C42.448 20.798 43.778 20.42 45.584 20.42C47.306 20.42 48.58 20.7 49.42 21.26C50.246 21.82 50.82 22.646 51.142 23.752L48.006 24.326C47.88 23.836 47.614 23.458 47.236 23.206C46.872 22.94 46.34 22.814 45.64 22.814C44.772 22.814 44.142 22.94 43.764 23.178C43.512 23.36 43.386 23.584 43.386 23.85C43.386 24.088 43.498 24.284 43.722 24.452C44.016 24.676 45.052 24.984 46.816 25.39C48.594 25.796 49.826 26.286 50.526 26.86C51.226 27.462 51.562 28.274 51.562 29.338C51.562 30.486 51.086 31.48 50.12 32.306C49.168 33.132 47.74 33.538 45.864 33.538C44.156 33.538 42.798 33.202 41.79 32.502C40.796 31.816 40.152 30.864 39.844 29.674Z" fill="#414042"/>
</g>
<defs>
<clipPath id="clip0_493_58">
<rect width="140" height="40" fill="white"/>
</clipPath>
</defs>
</svg>
